<?xml version="1.0" encoding="UTF-8" standalone="no"?>
<svg
   xmlns:dc="http://purl.org/dc/elements/1.1/"
   xmlns:cc="http://creativecommons.org/ns#"
   xmlns:rdf="http://www.w3.org/1999/02/22-rdf-syntax-ns#"
   xmlns:svg="http://www.w3.org/2000/svg"
   xmlns="http://www.w3.org/2000/svg"
   xmlns:xlink="http://www.w3.org/1999/xlink"
   xmlns:sodipodi="http://sodipodi.sourceforge.net/DTD/sodipodi-0.dtd"
   xmlns:inkscape="http://www.inkscape.org/namespaces/inkscape"
   width="600"
   height="300"
   viewBox="0 0 158.75 79.375"
   version="1.1"
   id="svg8"
   inkscape:version="1.0.2 (e86c870879, 2021-01-15)"
   sodipodi:docname="frame-dragging.svg"
   inkscape:export-filename="/home/masterdesky/GitHub/presentations/cosmology/2022-06-13-compact-stars/1-rotating-ns/images/frame-dragging.png"
   inkscape:export-xdpi="224.37646"
   inkscape:export-ydpi="224.37646">
  <defs
     id="defs2">
    <marker
       style="overflow:visible"
       id="marker1452"
       refX="0"
       refY="0"
       orient="auto"
       inkscape:stockid="Arrow1Mend"
       inkscape:isstock="true">
      <path
         transform="matrix(-0.4,0,0,-0.4,-4,0)"
         style="fill:#ff0000;fill-opacity:1;fill-rule:evenodd;stroke:#ff0000;stroke-width:1pt;stroke-opacity:1"
         d="M 0,0 5,-5 -12.5,0 5,5 Z"
         id="path1450" />
    </marker>
    <marker
       style="overflow:visible"
       id="DotM"
       refX="0"
       refY="0"
       orient="auto"
       inkscape:stockid="DotM"
       inkscape:isstock="true">
      <path
         transform="matrix(0.4,0,0,0.4,2.96,0.4)"
         style="fill:#000000;fill-opacity:1;fill-rule:evenodd;stroke:#000000;stroke-width:1pt;stroke-opacity:1"
         d="m -2.5,-1 c 0,2.76 -2.24,5 -5,5 -2.76,0 -5,-2.24 -5,-5 0,-2.76 2.24,-5 5,-5 2.76,0 5,2.24 5,5 z"
         id="path913" />
    </marker>
    <marker
       style="overflow:visible"
       id="DotL"
       refX="0"
       refY="0"
       orient="auto"
       inkscape:stockid="DotL"
       inkscape:isstock="true">
      <path
         transform="matrix(0.8,0,0,0.8,5.92,0.8)"
         style="fill:#000000;fill-opacity:1;fill-rule:evenodd;stroke:#000000;stroke-width:1pt;stroke-opacity:1"
         d="m -2.5,-1 c 0,2.76 -2.24,5 -5,5 -2.76,0 -5,-2.24 -5,-5 0,-2.76 2.24,-5 5,-5 2.76,0 5,2.24 5,5 z"
         id="path910" />
    </marker>
    <marker
       style="overflow:visible"
       id="marker2132"
       refX="0"
       refY="0"
       orient="auto"
       inkscape:stockid="Arrow1Mstart"
       inkscape:isstock="true">
      <path
         transform="matrix(0.4,0,0,0.4,4,0)"
         style="fill:#000000;fill-opacity:1;fill-rule:evenodd;stroke:#000000;stroke-width:1pt;stroke-opacity:1"
         d="M 0,0 5,-5 -12.5,0 5,5 Z"
         id="path2130" />
    </marker>
    <marker
       style="overflow:visible"
       id="marker2026"
       refX="0"
       refY="0"
       orient="auto"
       inkscape:stockid="Arrow1Mstart"
       inkscape:isstock="true">
      <path
         transform="matrix(0.4,0,0,0.4,4,0)"
         style="fill:#ff0000;fill-opacity:1;fill-rule:evenodd;stroke:#ff0000;stroke-width:1pt;stroke-opacity:1"
         d="M 0,0 5,-5 -12.5,0 5,5 Z"
         id="path2024" />
    </marker>
    <marker
       style="overflow:visible"
       id="marker1920"
       refX="0"
       refY="0"
       orient="auto"
       inkscape:stockid="Arrow1Mstart"
       inkscape:isstock="true"
       inkscape:collect="always">
      <path
         transform="matrix(0.4,0,0,0.4,4,0)"
         style="fill:#000000;fill-opacity:1;fill-rule:evenodd;stroke:#000000;stroke-width:1pt;stroke-opacity:1"
         d="M 0,0 5,-5 -12.5,0 5,5 Z"
         id="path1918" />
    </marker>
    <marker
       style="overflow:visible"
       id="marker1666"
       refX="0"
       refY="0"
       orient="auto"
       inkscape:stockid="Arrow1Mend"
       inkscape:isstock="true"
       inkscape:collect="always">
      <path
         transform="matrix(-0.4,0,0,-0.4,-4,0)"
         style="fill:#0000ff;fill-opacity:1;fill-rule:evenodd;stroke:#0000ff;stroke-width:1pt;stroke-opacity:1"
         d="M 0,0 5,-5 -12.5,0 5,5 Z"
         id="path1664" />
    </marker>
    <marker
       style="overflow:visible"
       id="marker1730"
       refX="0"
       refY="0"
       orient="auto"
       inkscape:stockid="Arrow1Mend"
       inkscape:isstock="true">
      <path
         transform="matrix(-0.4,0,0,-0.4,-4,0)"
         style="fill:#000000;fill-opacity:1;fill-rule:evenodd;stroke:#000000;stroke-width:1pt;stroke-opacity:1"
         d="M 0,0 5,-5 -12.5,0 5,5 Z"
         id="path1728" />
    </marker>
    <marker
       style="overflow:visible"
       id="marker1762"
       refX="0"
       refY="0"
       orient="auto"
       inkscape:stockid="Arrow1Mend"
       inkscape:isstock="true">
      <path
         transform="matrix(-0.4,0,0,-0.4,-4,0)"
         style="fill:#000000;fill-opacity:1;fill-rule:evenodd;stroke:#000000;stroke-width:1pt;stroke-opacity:1"
         d="M 0,0 5,-5 -12.5,0 5,5 Z"
         id="path1760" />
    </marker>
    <marker
       style="overflow:visible"
       id="Arrow1Mstart"
       refX="0"
       refY="0"
       orient="auto"
       inkscape:stockid="Arrow1Mstart"
       inkscape:isstock="true">
      <path
         transform="matrix(0.4,0,0,0.4,4,0)"
         style="fill:#000000;fill-opacity:1;fill-rule:evenodd;stroke:#000000;stroke-width:1pt;stroke-opacity:1"
         d="M 0,0 5,-5 -12.5,0 5,5 Z"
         id="path855" />
    </marker>
    <marker
       style="overflow:visible"
       id="marker1351"
       refX="0"
       refY="0"
       orient="auto"
       inkscape:stockid="Arrow1Mend"
       inkscape:isstock="true">
      <path
         transform="matrix(-0.4,0,0,-0.4,-4,0)"
         style="fill:#000000;fill-opacity:1;fill-rule:evenodd;stroke:#000000;stroke-width:1pt;stroke-opacity:1"
         d="M 0,0 5,-5 -12.5,0 5,5 Z"
         id="path1349" />
    </marker>
    <marker
       style="overflow:visible"
       id="Arrow1Lend"
       refX="0"
       refY="0"
       orient="auto"
       inkscape:stockid="Arrow1Lend"
       inkscape:isstock="true">
      <path
         transform="matrix(-0.8,0,0,-0.8,-10,0)"
         style="fill:#000000;fill-opacity:1;fill-rule:evenodd;stroke:#000000;stroke-width:1pt;stroke-opacity:1"
         d="M 0,0 5,-5 -12.5,0 5,5 Z"
         id="path852" />
    </marker>
    <marker
       style="overflow:visible"
       id="marker1201"
       refX="0"
       refY="0"
       orient="auto"
       inkscape:stockid="Arrow1Lstart"
       inkscape:isstock="true">
      <path
         transform="matrix(0.8,0,0,0.8,10,0)"
         style="fill:#000000;fill-opacity:1;fill-rule:evenodd;stroke:#000000;stroke-width:1pt;stroke-opacity:1"
         d="M 0,0 5,-5 -12.5,0 5,5 Z"
         id="path1199" />
    </marker>
    <marker
       style="overflow:visible"
       id="marker1173"
       refX="0"
       refY="0"
       orient="auto"
       inkscape:stockid="Arrow1Lstart"
       inkscape:isstock="true">
      <path
         transform="matrix(0.8,0,0,0.8,10,0)"
         style="fill:#000000;fill-opacity:1;fill-rule:evenodd;stroke:#000000;stroke-width:1pt;stroke-opacity:1"
         d="M 0,0 5,-5 -12.5,0 5,5 Z"
         id="path1171" />
    </marker>
    <marker
       style="overflow:visible"
       id="Arrow1Lstart"
       refX="0"
       refY="0"
       orient="auto"
       inkscape:stockid="Arrow1Lstart"
       inkscape:isstock="true">
      <path
         transform="matrix(0.8,0,0,0.8,10,0)"
         style="fill:#000000;fill-opacity:1;fill-rule:evenodd;stroke:#000000;stroke-width:1pt;stroke-opacity:1"
         d="M 0,0 5,-5 -12.5,0 5,5 Z"
         id="path849" />
    </marker>
    <g
       id="g6747">
      <symbol
         overflow="visible"
         id="symbol3363">
        <path
           style="stroke:none"
           d=""
           id="path6742" />
      </symbol>
      <symbol
         overflow="visible"
         id="symbol6909">
        <path
           style="stroke:none"
           d="M 6.75,-1.609375 H 6.5 c -0.046875,0.25 -0.09375,0.484375 -0.1875,0.71875 -0.046875,0.15625 -0.078125,0.25 -0.65625,0.25 H 4.859375 C 5,-1.203125 5.296875,-1.6875 5.75,-2.34375 c 0.46875,-0.703125 0.875,-1.390625 0.875,-2.1875 0,-1.375 -1.34375,-2.5 -3.03125,-2.5 -1.703125,0 -3.03125,1.140625 -3.03125,2.5 0,0.796875 0.40625,1.484375 0.875,2.1875 0.4375,0.65625 0.75,1.140625 0.890625,1.703125 H 1.53125 C 0.953125,-0.640625 0.921875,-0.734375 0.875,-0.875 0.78125,-1.109375 0.734375,-1.359375 0.6875,-1.609375 h -0.25 L 0.765625,0 h 1.59375 c 0.21875,0 0.25,0 0.25,-0.203125 0,-0.703125 -0.3125,-1.578125 -0.53125,-2.21875 -0.21875,-0.578125 -0.5,-1.359375 -0.5,-2.109375 0,-1.59375 1.109375,-2.28125 2.015625,-2.28125 0.953125,0 2.015625,0.71875 2.015625,2.28125 0,0.75 -0.28125,1.5 -0.5625,2.3125 -0.15625,0.421875 -0.46875,1.328125 -0.46875,2.015625 C 4.578125,0 4.609375,0 4.828125,0 h 1.59375 z m 0,0"
           id="path469" />
      </symbol>
    </g>
    <g
       id="g1754">
      <symbol
         overflow="visible"
         id="symbol6061">
        <path
           style="stroke:none"
           d=""
           id="path3657" />
      </symbol>
      <symbol
         overflow="visible"
         id="symbol8490">
        <path
           style="stroke:none"
           d="M 6.75,-1.609375 H 6.5 c -0.046875,0.25 -0.09375,0.484375 -0.1875,0.71875 -0.046875,0.15625 -0.078125,0.25 -0.65625,0.25 H 4.859375 C 5,-1.203125 5.296875,-1.6875 5.75,-2.34375 c 0.46875,-0.703125 0.875,-1.390625 0.875,-2.1875 0,-1.375 -1.34375,-2.5 -3.03125,-2.5 -1.703125,0 -3.03125,1.140625 -3.03125,2.5 0,0.796875 0.40625,1.484375 0.875,2.1875 0.4375,0.65625 0.75,1.140625 0.890625,1.703125 H 1.53125 C 0.953125,-0.640625 0.921875,-0.734375 0.875,-0.875 0.78125,-1.109375 0.734375,-1.359375 0.6875,-1.609375 h -0.25 L 0.765625,0 h 1.59375 c 0.21875,0 0.25,0 0.25,-0.203125 0,-0.703125 -0.3125,-1.578125 -0.53125,-2.21875 -0.21875,-0.578125 -0.5,-1.359375 -0.5,-2.109375 0,-1.59375 1.109375,-2.28125 2.015625,-2.28125 0.953125,0 2.015625,0.71875 2.015625,2.28125 0,0.75 -0.28125,1.5 -0.5625,2.3125 -0.15625,0.421875 -0.46875,1.328125 -0.46875,2.015625 C 4.578125,0 4.609375,0 4.828125,0 h 1.59375 z m 0,0"
           id="path538" />
      </symbol>
    </g>
    <g
       id="g5208">
      <symbol
         overflow="visible"
         id="symbol7810">
        <path
           style="stroke:none;"
           d=""
           id="path8654" />
      </symbol>
      <symbol
         overflow="visible"
         id="symbol4563">
        <path
           style="stroke:none;"
           d="M 6.03125 -3.703125 C 6.03125 -4.15625 5.859375 -4.40625 5.625 -4.40625 C 5.375 -4.40625 5.109375 -4.171875 5.109375 -3.9375 C 5.109375 -3.84375 5.15625 -3.734375 5.25 -3.640625 C 5.421875 -3.484375 5.609375 -3.21875 5.609375 -2.796875 C 5.609375 -2.40625 5.40625 -1.828125 5.109375 -1.375 C 4.8125 -0.953125 4.4375 -0.609375 3.96875 -0.609375 C 3.40625 -0.609375 3.09375 -0.96875 3 -1.5 C 3.109375 -1.765625 3.34375 -2.40625 3.34375 -2.6875 C 3.34375 -2.796875 3.296875 -2.90625 3.15625 -2.90625 C 3.078125 -2.90625 2.96875 -2.875 2.890625 -2.734375 C 2.78125 -2.53125 2.65625 -1.890625 2.65625 -1.53125 C 2.328125 -1.0625 1.9375 -0.609375 1.3125 -0.609375 C 0.640625 -0.609375 0.4375 -1.203125 0.4375 -1.75 C 0.4375 -3 1.453125 -4.046875 1.453125 -4.171875 C 1.453125 -4.28125 1.375 -4.359375 1.265625 -4.359375 C 1.140625 -4.359375 1.0625 -4.234375 1 -4.140625 C 0.5 -3.40625 0.125 -2.21875 0.125 -1.3125 C 0.125 -0.625 0.34375 0.109375 1.171875 0.109375 C 1.875 0.109375 2.34375 -0.390625 2.703125 -0.9375 C 2.796875 -0.359375 3.1875 0.109375 3.796875 0.109375 C 4.578125 0.109375 5.046875 -0.5 5.40625 -1.25 C 5.65625 -1.734375 6.03125 -3.09375 6.03125 -3.703125 Z M 6.03125 -3.703125 "
           id="path5067" />
      </symbol>
      <symbol
         overflow="visible"
         id="symbol4114">
        <path
           style="stroke:none;"
           d="M 0.875 -0.59375 C 0.84375 -0.4375 0.78125 -0.203125 0.78125 -0.15625 C 0.78125 0.015625 0.921875 0.109375 1.078125 0.109375 C 1.203125 0.109375 1.375 0.03125 1.453125 -0.171875 C 1.46875 -0.203125 1.796875 -1.5625 1.84375 -1.75 C 1.921875 -2.078125 2.109375 -2.765625 2.15625 -3.046875 C 2.203125 -3.171875 2.484375 -3.640625 2.71875 -3.859375 C 2.796875 -3.921875 3.09375 -4.1875 3.515625 -4.1875 C 3.78125 -4.1875 3.921875 -4.0625 3.9375 -4.0625 C 3.640625 -4.015625 3.421875 -3.78125 3.421875 -3.515625 C 3.421875 -3.359375 3.53125 -3.171875 3.796875 -3.171875 C 4.0625 -3.171875 4.34375 -3.40625 4.34375 -3.765625 C 4.34375 -4.109375 4.03125 -4.40625 3.515625 -4.40625 C 2.875 -4.40625 2.4375 -3.921875 2.25 -3.640625 C 2.15625 -4.09375 1.796875 -4.40625 1.328125 -4.40625 C 0.875 -4.40625 0.6875 -4.015625 0.59375 -3.84375 C 0.421875 -3.5 0.296875 -2.90625 0.296875 -2.875 C 0.296875 -2.765625 0.390625 -2.765625 0.40625 -2.765625 C 0.515625 -2.765625 0.515625 -2.78125 0.578125 -3 C 0.75 -3.703125 0.953125 -4.1875 1.3125 -4.1875 C 1.46875 -4.1875 1.609375 -4.109375 1.609375 -3.734375 C 1.609375 -3.515625 1.578125 -3.40625 1.453125 -2.890625 Z M 0.875 -0.59375 "
           id="path7495" />
      </symbol>
      <symbol
         overflow="visible"
         id="symbol3607">
        <path
           style="stroke:none;"
           d=""
           id="path3328" />
      </symbol>
      <symbol
         overflow="visible"
         id="symbol3855">
        <path
           style="stroke:none;"
           d="M 3.296875 2.390625 C 3.296875 2.359375 3.296875 2.34375 3.125 2.171875 C 1.890625 0.921875 1.5625 -0.96875 1.5625 -2.5 C 1.5625 -4.234375 1.9375 -5.96875 3.171875 -7.203125 C 3.296875 -7.328125 3.296875 -7.34375 3.296875 -7.375 C 3.296875 -7.453125 3.265625 -7.484375 3.203125 -7.484375 C 3.09375 -7.484375 2.203125 -6.796875 1.609375 -5.53125 C 1.109375 -4.4375 0.984375 -3.328125 0.984375 -2.5 C 0.984375 -1.71875 1.09375 -0.515625 1.640625 0.625 C 2.25 1.84375 3.09375 2.5 3.203125 2.5 C 3.265625 2.5 3.296875 2.46875 3.296875 2.390625 Z M 3.296875 2.390625 "
           id="path4677" />
      </symbol>
      <symbol
         overflow="visible"
         id="symbol2388">
        <path
           style="stroke:none;"
           d="M 2.875 -2.5 C 2.875 -3.265625 2.765625 -4.46875 2.21875 -5.609375 C 1.625 -6.828125 0.765625 -7.484375 0.671875 -7.484375 C 0.609375 -7.484375 0.5625 -7.4375 0.5625 -7.375 C 0.5625 -7.34375 0.5625 -7.328125 0.75 -7.140625 C 1.734375 -6.15625 2.296875 -4.578125 2.296875 -2.5 C 2.296875 -0.78125 1.9375 0.96875 0.703125 2.21875 C 0.5625 2.34375 0.5625 2.359375 0.5625 2.390625 C 0.5625 2.453125 0.609375 2.5 0.671875 2.5 C 0.765625 2.5 1.671875 1.8125 2.25 0.546875 C 2.765625 -0.546875 2.875 -1.65625 2.875 -2.5 Z M 2.875 -2.5 "
           id="path3048" />
      </symbol>
      <symbol
         overflow="visible"
         id="symbol624">
        <path
           style="stroke:none;"
           d=""
           id="path2943" />
      </symbol>
      <symbol
         overflow="visible"
         id="symbol5370">
        <path
           style="stroke:none;"
           d="M 7.203125 -0.3125 C 7.15625 -0.3125 7 -0.296875 6.96875 -0.296875 C 6.1875 -0.296875 5.65625 -1.078125 5.3125 -1.59375 C 5.21875 -1.765625 4.9375 -2.171875 4.828125 -2.34375 C 5.078125 -2.875 5.734375 -4.109375 6.921875 -4.109375 C 7 -4.109375 7.09375 -4.109375 7.203125 -4.09375 C 7.203125 -4.34375 7.1875 -4.359375 7.171875 -4.375 C 7.09375 -4.390625 6.953125 -4.40625 6.859375 -4.40625 C 5.59375 -4.40625 4.859375 -3.1875 4.609375 -2.6875 C 4.21875 -3.296875 4.078125 -3.515625 3.703125 -3.828125 C 3.09375 -4.359375 2.546875 -4.40625 2.296875 -4.40625 C 1.203125 -4.40625 0.5625 -3.296875 0.5625 -2.140625 C 0.5625 -1.03125 1.171875 0.109375 2.265625 0.109375 C 3.53125 0.109375 4.28125 -1.109375 4.515625 -1.609375 C 4.921875 -1 5.046875 -0.78125 5.421875 -0.46875 C 6.03125 0.0625 6.578125 0.109375 6.828125 0.109375 C 6.953125 0.109375 7.109375 0.09375 7.203125 0.0625 Z M 4.296875 -1.953125 C 4.0625 -1.421875 3.390625 -0.171875 2.203125 -0.171875 C 1.234375 -0.171875 0.78125 -1.234375 0.78125 -2.140625 C 0.78125 -3.125 1.328125 -4 2.15625 -4 C 2.953125 -4 3.484375 -3.21875 3.8125 -2.703125 C 3.921875 -2.53125 4.1875 -2.125 4.296875 -1.953125 Z M 4.296875 -1.953125 "
           id="path2877" />
      </symbol>
      <symbol
         overflow="visible"
         id="symbol9794">
        <path
           style="stroke:none;"
           d=""
           id="path7086" />
      </symbol>
      <symbol
         overflow="visible"
         id="symbol6476">
        <path
           style="stroke:none;"
           d="M 5.28125 -1.171875 L 5.03125 -1.171875 C 5.03125 -1.15625 4.96875 -0.828125 4.90625 -0.65625 C 4.875 -0.546875 4.84375 -0.5 4.421875 -0.5 L 3.828125 -0.5 C 3.9375 -0.890625 4.140625 -1.15625 4.53125 -1.671875 C 4.875 -2.140625 5.1875 -2.59375 5.1875 -3.15625 C 5.1875 -4.109375 4.171875 -4.90625 2.84375 -4.90625 C 1.5 -4.90625 0.484375 -4.109375 0.484375 -3.15625 C 0.484375 -2.546875 0.828125 -2.09375 1.3125 -1.4375 C 1.515625 -1.171875 1.734375 -0.859375 1.84375 -0.5 L 1.25 -0.5 C 0.84375 -0.5 0.8125 -0.546875 0.78125 -0.625 C 0.71875 -0.765625 0.640625 -1.15625 0.640625 -1.171875 L 0.390625 -1.171875 L 0.640625 0 L 1.90625 0 C 2.046875 0 2.09375 0 2.09375 -0.15625 C 2.09375 -0.65625 1.84375 -1.25 1.6875 -1.59375 C 1.421875 -2.203125 1.234375 -2.65625 1.234375 -3.171875 C 1.234375 -4.15625 2.015625 -4.703125 2.84375 -4.703125 C 3.65625 -4.703125 4.4375 -4.15625 4.4375 -3.171875 C 4.4375 -2.640625 4.234375 -2.171875 4 -1.625 C 3.84375 -1.28125 3.578125 -0.65625 3.578125 -0.15625 C 3.578125 0 3.609375 0 3.78125 0 L 5.03125 0 Z M 5.28125 -1.171875 "
           id="path3279" />
      </symbol>
      <symbol
         overflow="visible"
         id="symbol9916">
        <path
           style="stroke:none;"
           d=""
           id="path6604" />
      </symbol>
      <symbol
         overflow="visible"
         id="symbol8514">
        <path
           style="stroke:none;"
           d="M 1.640625 -1.40625 C 1.640625 -1.453125 1.8125 -2.078125 1.8125 -2.109375 C 1.828125 -2.171875 2.03125 -2.515625 2.265625 -2.6875 C 2.328125 -2.734375 2.515625 -2.875 2.828125 -2.875 C 2.890625 -2.875 3.0625 -2.875 3.203125 -2.78125 C 2.984375 -2.71875 2.90625 -2.515625 2.90625 -2.390625 C 2.90625 -2.25 3.015625 -2.140625 3.171875 -2.140625 C 3.34375 -2.140625 3.5625 -2.265625 3.5625 -2.5625 C 3.5625 -2.921875 3.1875 -3.078125 2.828125 -3.078125 C 2.46875 -3.078125 2.15625 -2.921875 1.84375 -2.578125 C 1.71875 -3 1.296875 -3.078125 1.125 -3.078125 C 0.875 -3.078125 0.703125 -2.90625 0.578125 -2.71875 C 0.421875 -2.453125 0.328125 -2.046875 0.328125 -2 C 0.328125 -1.921875 0.421875 -1.921875 0.453125 -1.921875 C 0.546875 -1.921875 0.546875 -1.9375 0.59375 -2.125 C 0.703125 -2.546875 0.84375 -2.875 1.109375 -2.875 C 1.296875 -2.875 1.34375 -2.71875 1.34375 -2.53125 C 1.34375 -2.40625 1.28125 -2.140625 1.21875 -1.953125 C 1.171875 -1.765625 1.109375 -1.484375 1.078125 -1.328125 L 0.84375 -0.4375 C 0.828125 -0.34375 0.78125 -0.171875 0.78125 -0.15625 C 0.78125 0 0.90625 0.0625 1.015625 0.0625 C 1.125 0.0625 1.265625 0 1.3125 -0.125 C 1.328125 -0.171875 1.40625 -0.484375 1.453125 -0.65625 Z M 1.640625 -1.40625 "
           id="path5211" />
      </symbol>
      <symbol
         overflow="visible"
         id="symbol4312">
        <path
           style="stroke:none;"
           d=""
           id="path3487" />
      </symbol>
      <symbol
         overflow="visible"
         id="symbol8179">
        <path
           style="stroke:none;"
           d="M 2.9375 -0.96875 L 2.71875 -0.96875 C 2.71875 -0.875 2.65625 -0.5625 2.578125 -0.515625 C 2.546875 -0.484375 2.125 -0.484375 2.046875 -0.484375 L 1.078125 -0.484375 C 1.40625 -0.71875 1.765625 -1 2.0625 -1.203125 C 2.515625 -1.515625 2.9375 -1.796875 2.9375 -2.328125 C 2.9375 -2.96875 2.328125 -3.3125 1.625 -3.3125 C 0.953125 -3.3125 0.453125 -2.9375 0.453125 -2.4375 C 0.453125 -2.1875 0.671875 -2.140625 0.75 -2.140625 C 0.875 -2.140625 1.03125 -2.234375 1.03125 -2.4375 C 1.03125 -2.609375 0.90625 -2.71875 0.75 -2.71875 C 0.890625 -2.953125 1.1875 -3.09375 1.515625 -3.09375 C 2 -3.09375 2.40625 -2.8125 2.40625 -2.328125 C 2.40625 -1.90625 2.109375 -1.578125 1.734375 -1.265625 L 0.515625 -0.234375 C 0.46875 -0.1875 0.453125 -0.1875 0.453125 -0.15625 L 0.453125 0 L 2.765625 0 Z M 2.9375 -0.96875 "
           id="path3134" />
      </symbol>
    </g>
    <g
       id="g6110">
      <symbol
         overflow="visible"
         id="symbol564">
        <path
           style="stroke:none;"
           d=""
           id="path2062" />
      </symbol>
      <symbol
         overflow="visible"
         id="symbol8978">
        <path
           style="stroke:none;"
           d="M 6.03125 -3.703125 C 6.03125 -4.15625 5.859375 -4.40625 5.625 -4.40625 C 5.375 -4.40625 5.109375 -4.171875 5.109375 -3.9375 C 5.109375 -3.84375 5.15625 -3.734375 5.25 -3.640625 C 5.421875 -3.484375 5.609375 -3.21875 5.609375 -2.796875 C 5.609375 -2.40625 5.40625 -1.828125 5.109375 -1.375 C 4.8125 -0.953125 4.4375 -0.609375 3.96875 -0.609375 C 3.40625 -0.609375 3.09375 -0.96875 3 -1.5 C 3.109375 -1.765625 3.34375 -2.40625 3.34375 -2.6875 C 3.34375 -2.796875 3.296875 -2.90625 3.15625 -2.90625 C 3.078125 -2.90625 2.96875 -2.875 2.890625 -2.734375 C 2.78125 -2.53125 2.65625 -1.890625 2.65625 -1.53125 C 2.328125 -1.0625 1.9375 -0.609375 1.3125 -0.609375 C 0.640625 -0.609375 0.4375 -1.203125 0.4375 -1.75 C 0.4375 -3 1.453125 -4.046875 1.453125 -4.171875 C 1.453125 -4.28125 1.375 -4.359375 1.265625 -4.359375 C 1.140625 -4.359375 1.0625 -4.234375 1 -4.140625 C 0.5 -3.40625 0.125 -2.21875 0.125 -1.3125 C 0.125 -0.625 0.34375 0.109375 1.171875 0.109375 C 1.875 0.109375 2.34375 -0.390625 2.703125 -0.9375 C 2.796875 -0.359375 3.1875 0.109375 3.796875 0.109375 C 4.578125 0.109375 5.046875 -0.5 5.40625 -1.25 C 5.65625 -1.734375 6.03125 -3.09375 6.03125 -3.703125 Z M 6.03125 -3.703125 "
           id="path2373" />
      </symbol>
      <symbol
         overflow="visible"
         id="symbol2036">
        <path
           style="stroke:none;"
           d="M 0.875 -0.59375 C 0.84375 -0.4375 0.78125 -0.203125 0.78125 -0.15625 C 0.78125 0.015625 0.921875 0.109375 1.078125 0.109375 C 1.203125 0.109375 1.375 0.03125 1.453125 -0.171875 C 1.46875 -0.203125 1.796875 -1.5625 1.84375 -1.75 C 1.921875 -2.078125 2.109375 -2.765625 2.15625 -3.046875 C 2.203125 -3.171875 2.484375 -3.640625 2.71875 -3.859375 C 2.796875 -3.921875 3.09375 -4.1875 3.515625 -4.1875 C 3.78125 -4.1875 3.921875 -4.0625 3.9375 -4.0625 C 3.640625 -4.015625 3.421875 -3.78125 3.421875 -3.515625 C 3.421875 -3.359375 3.53125 -3.171875 3.796875 -3.171875 C 4.0625 -3.171875 4.34375 -3.40625 4.34375 -3.765625 C 4.34375 -4.109375 4.03125 -4.40625 3.515625 -4.40625 C 2.875 -4.40625 2.4375 -3.921875 2.25 -3.640625 C 2.15625 -4.09375 1.796875 -4.40625 1.328125 -4.40625 C 0.875 -4.40625 0.6875 -4.015625 0.59375 -3.84375 C 0.421875 -3.5 0.296875 -2.90625 0.296875 -2.875 C 0.296875 -2.765625 0.390625 -2.765625 0.40625 -2.765625 C 0.515625 -2.765625 0.515625 -2.78125 0.578125 -3 C 0.75 -3.703125 0.953125 -4.1875 1.3125 -4.1875 C 1.46875 -4.1875 1.609375 -4.109375 1.609375 -3.734375 C 1.609375 -3.515625 1.578125 -3.40625 1.453125 -2.890625 Z M 0.875 -0.59375 "
           id="path8263" />
      </symbol>
      <symbol
         overflow="visible"
         id="symbol9613">
        <path
           style="stroke:none;"
           d=""
           id="path2287" />
      </symbol>
      <symbol
         overflow="visible"
         id="symbol9206">
        <path
           style="stroke:none;"
           d="M 3.296875 2.390625 C 3.296875 2.359375 3.296875 2.34375 3.125 2.171875 C 1.890625 0.921875 1.5625 -0.96875 1.5625 -2.5 C 1.5625 -4.234375 1.9375 -5.96875 3.171875 -7.203125 C 3.296875 -7.328125 3.296875 -7.34375 3.296875 -7.375 C 3.296875 -7.453125 3.265625 -7.484375 3.203125 -7.484375 C 3.09375 -7.484375 2.203125 -6.796875 1.609375 -5.53125 C 1.109375 -4.4375 0.984375 -3.328125 0.984375 -2.5 C 0.984375 -1.71875 1.09375 -0.515625 1.640625 0.625 C 2.25 1.84375 3.09375 2.5 3.203125 2.5 C 3.265625 2.5 3.296875 2.46875 3.296875 2.390625 Z M 3.296875 2.390625 "
           id="path2216" />
      </symbol>
      <symbol
         overflow="visible"
         id="symbol9410">
        <path
           style="stroke:none;"
           d="M 2.875 -2.5 C 2.875 -3.265625 2.765625 -4.46875 2.21875 -5.609375 C 1.625 -6.828125 0.765625 -7.484375 0.671875 -7.484375 C 0.609375 -7.484375 0.5625 -7.4375 0.5625 -7.375 C 0.5625 -7.34375 0.5625 -7.328125 0.75 -7.140625 C 1.734375 -6.15625 2.296875 -4.578125 2.296875 -2.5 C 2.296875 -0.78125 1.9375 0.96875 0.703125 2.21875 C 0.5625 2.34375 0.5625 2.359375 0.5625 2.390625 C 0.5625 2.453125 0.609375 2.5 0.671875 2.5 C 0.765625 2.5 1.671875 1.8125 2.25 0.546875 C 2.765625 -0.546875 2.875 -1.65625 2.875 -2.5 Z M 2.875 -2.5 "
           id="path8468" />
      </symbol>
      <symbol
         overflow="visible"
         id="symbol8089">
        <path
           style="stroke:none;"
           d=""
           id="path3743" />
      </symbol>
      <symbol
         overflow="visible"
         id="symbol5049">
        <path
           style="stroke:none;"
           d="M 7.203125 -0.3125 C 7.15625 -0.3125 7 -0.296875 6.96875 -0.296875 C 6.1875 -0.296875 5.65625 -1.078125 5.3125 -1.59375 C 5.21875 -1.765625 4.9375 -2.171875 4.828125 -2.34375 C 5.078125 -2.875 5.734375 -4.109375 6.921875 -4.109375 C 7 -4.109375 7.09375 -4.109375 7.203125 -4.09375 C 7.203125 -4.34375 7.1875 -4.359375 7.171875 -4.375 C 7.09375 -4.390625 6.953125 -4.40625 6.859375 -4.40625 C 5.59375 -4.40625 4.859375 -3.1875 4.609375 -2.6875 C 4.21875 -3.296875 4.078125 -3.515625 3.703125 -3.828125 C 3.09375 -4.359375 2.546875 -4.40625 2.296875 -4.40625 C 1.203125 -4.40625 0.5625 -3.296875 0.5625 -2.140625 C 0.5625 -1.03125 1.171875 0.109375 2.265625 0.109375 C 3.53125 0.109375 4.28125 -1.109375 4.515625 -1.609375 C 4.921875 -1 5.046875 -0.78125 5.421875 -0.46875 C 6.03125 0.0625 6.578125 0.109375 6.828125 0.109375 C 6.953125 0.109375 7.109375 0.09375 7.203125 0.0625 Z M 4.296875 -1.953125 C 4.0625 -1.421875 3.390625 -0.171875 2.203125 -0.171875 C 1.234375 -0.171875 0.78125 -1.234375 0.78125 -2.140625 C 0.78125 -3.125 1.328125 -4 2.15625 -4 C 2.953125 -4 3.484375 -3.21875 3.8125 -2.703125 C 3.921875 -2.53125 4.1875 -2.125 4.296875 -1.953125 Z M 4.296875 -1.953125 "
           id="path9847" />
      </symbol>
      <symbol
         overflow="visible"
         id="symbol1384">
        <path
           style="stroke:none;"
           d=""
           id="path8034" />
      </symbol>
      <symbol
         overflow="visible"
         id="symbol7648">
        <path
           style="stroke:none;"
           d="M 5.28125 -1.171875 L 5.03125 -1.171875 C 5.03125 -1.15625 4.96875 -0.828125 4.90625 -0.65625 C 4.875 -0.546875 4.84375 -0.5 4.421875 -0.5 L 3.828125 -0.5 C 3.9375 -0.890625 4.140625 -1.15625 4.53125 -1.671875 C 4.875 -2.140625 5.1875 -2.59375 5.1875 -3.15625 C 5.1875 -4.109375 4.171875 -4.90625 2.84375 -4.90625 C 1.5 -4.90625 0.484375 -4.109375 0.484375 -3.15625 C 0.484375 -2.546875 0.828125 -2.09375 1.3125 -1.4375 C 1.515625 -1.171875 1.734375 -0.859375 1.84375 -0.5 L 1.25 -0.5 C 0.84375 -0.5 0.8125 -0.546875 0.78125 -0.625 C 0.71875 -0.765625 0.640625 -1.15625 0.640625 -1.171875 L 0.390625 -1.171875 L 0.640625 0 L 1.90625 0 C 2.046875 0 2.09375 0 2.09375 -0.15625 C 2.09375 -0.65625 1.84375 -1.25 1.6875 -1.59375 C 1.421875 -2.203125 1.234375 -2.65625 1.234375 -3.171875 C 1.234375 -4.15625 2.015625 -4.703125 2.84375 -4.703125 C 3.65625 -4.703125 4.4375 -4.15625 4.4375 -3.171875 C 4.4375 -2.640625 4.234375 -2.171875 4 -1.625 C 3.84375 -1.28125 3.578125 -0.65625 3.578125 -0.15625 C 3.578125 0 3.609375 0 3.78125 0 L 5.03125 0 Z M 5.28125 -1.171875 "
           id="path1361" />
      </symbol>
      <symbol
         overflow="visible"
         id="symbol5533">
        <path
           style="stroke:none;"
           d=""
           id="path352" />
      </symbol>
      <symbol
         overflow="visible"
         id="symbol9110">
        <path
           style="stroke:none;"
           d="M 1.640625 -1.40625 C 1.640625 -1.453125 1.8125 -2.078125 1.8125 -2.109375 C 1.828125 -2.171875 2.03125 -2.515625 2.265625 -2.6875 C 2.328125 -2.734375 2.515625 -2.875 2.828125 -2.875 C 2.890625 -2.875 3.0625 -2.875 3.203125 -2.78125 C 2.984375 -2.71875 2.90625 -2.515625 2.90625 -2.390625 C 2.90625 -2.25 3.015625 -2.140625 3.171875 -2.140625 C 3.34375 -2.140625 3.5625 -2.265625 3.5625 -2.5625 C 3.5625 -2.921875 3.1875 -3.078125 2.828125 -3.078125 C 2.46875 -3.078125 2.15625 -2.921875 1.84375 -2.578125 C 1.71875 -3 1.296875 -3.078125 1.125 -3.078125 C 0.875 -3.078125 0.703125 -2.90625 0.578125 -2.71875 C 0.421875 -2.453125 0.328125 -2.046875 0.328125 -2 C 0.328125 -1.921875 0.421875 -1.921875 0.453125 -1.921875 C 0.546875 -1.921875 0.546875 -1.9375 0.59375 -2.125 C 0.703125 -2.546875 0.84375 -2.875 1.109375 -2.875 C 1.296875 -2.875 1.34375 -2.71875 1.34375 -2.53125 C 1.34375 -2.40625 1.28125 -2.140625 1.21875 -1.953125 C 1.171875 -1.765625 1.109375 -1.484375 1.078125 -1.328125 L 0.84375 -0.4375 C 0.828125 -0.34375 0.78125 -0.171875 0.78125 -0.15625 C 0.78125 0 0.90625 0.0625 1.015625 0.0625 C 1.125 0.0625 1.265625 0 1.3125 -0.125 C 1.328125 -0.171875 1.40625 -0.484375 1.453125 -0.65625 Z M 1.640625 -1.40625 "
           id="path1667" />
      </symbol>
      <symbol
         overflow="visible"
         id="symbol2063">
        <path
           style="stroke:none;"
           d=""
           id="path2948" />
      </symbol>
      <symbol
         overflow="visible"
         id="symbol4530">
        <path
           style="stroke:none;"
           d="M 1.640625 -1.65625 C 2.109375 -1.65625 2.40625 -1.359375 2.40625 -0.875 C 2.40625 -0.359375 2.09375 -0.09375 1.65625 -0.09375 C 1.59375 -0.09375 1 -0.09375 0.75 -0.359375 C 0.953125 -0.390625 1.015625 -0.53125 1.015625 -0.65625 C 1.015625 -0.84375 0.875 -0.96875 0.703125 -0.96875 C 0.546875 -0.96875 0.40625 -0.859375 0.40625 -0.640625 C 0.40625 -0.125 0.984375 0.109375 1.671875 0.109375 C 2.484375 0.109375 2.984375 -0.390625 2.984375 -0.875 C 2.984375 -1.28125 2.625 -1.625 2.0625 -1.75 C 2.65625 -1.953125 2.8125 -2.328125 2.8125 -2.609375 C 2.8125 -3.015625 2.3125 -3.3125 1.6875 -3.3125 C 1.0625 -3.3125 0.578125 -3.0625 0.578125 -2.609375 C 0.578125 -2.375 0.765625 -2.3125 0.859375 -2.3125 C 1 -2.3125 1.140625 -2.421875 1.140625 -2.609375 C 1.140625 -2.71875 1.078125 -2.859375 0.90625 -2.890625 C 1.109375 -3.109375 1.5625 -3.125 1.671875 -3.125 C 2.03125 -3.125 2.28125 -2.953125 2.28125 -2.609375 C 2.28125 -2.3125 2.09375 -1.859375 1.578125 -1.828125 C 1.4375 -1.828125 1.421875 -1.828125 1.28125 -1.8125 C 1.234375 -1.8125 1.171875 -1.8125 1.171875 -1.734375 C 1.171875 -1.65625 1.21875 -1.65625 1.3125 -1.65625 Z M 1.640625 -1.65625 "
           id="path3006" />
      </symbol>
    </g>
    <g
       id="g3359">
      <symbol
         overflow="visible"
         id="symbol7926">
        <path
           style="stroke:none;"
           d=""
           id="path8537" />
      </symbol>
      <symbol
         overflow="visible"
         id="symbol1076">
        <path
           style="stroke:none;"
           d="M 6.03125 -3.703125 C 6.03125 -4.15625 5.859375 -4.40625 5.625 -4.40625 C 5.375 -4.40625 5.109375 -4.171875 5.109375 -3.9375 C 5.109375 -3.84375 5.15625 -3.734375 5.25 -3.640625 C 5.421875 -3.484375 5.609375 -3.21875 5.609375 -2.796875 C 5.609375 -2.40625 5.40625 -1.828125 5.109375 -1.375 C 4.8125 -0.953125 4.4375 -0.609375 3.96875 -0.609375 C 3.40625 -0.609375 3.09375 -0.96875 3 -1.5 C 3.109375 -1.765625 3.34375 -2.40625 3.34375 -2.6875 C 3.34375 -2.796875 3.296875 -2.90625 3.15625 -2.90625 C 3.078125 -2.90625 2.96875 -2.875 2.890625 -2.734375 C 2.78125 -2.53125 2.65625 -1.890625 2.65625 -1.53125 C 2.328125 -1.0625 1.9375 -0.609375 1.3125 -0.609375 C 0.640625 -0.609375 0.4375 -1.203125 0.4375 -1.75 C 0.4375 -3 1.453125 -4.046875 1.453125 -4.171875 C 1.453125 -4.28125 1.375 -4.359375 1.265625 -4.359375 C 1.140625 -4.359375 1.0625 -4.234375 1 -4.140625 C 0.5 -3.40625 0.125 -2.21875 0.125 -1.3125 C 0.125 -0.625 0.34375 0.109375 1.171875 0.109375 C 1.875 0.109375 2.34375 -0.390625 2.703125 -0.9375 C 2.796875 -0.359375 3.1875 0.109375 3.796875 0.109375 C 4.578125 0.109375 5.046875 -0.5 5.40625 -1.25 C 5.65625 -1.734375 6.03125 -3.09375 6.03125 -3.703125 Z M 6.03125 -3.703125 "
           id="path943" />
      </symbol>
      <symbol
         overflow="visible"
         id="symbol6480">
        <path
           style="stroke:none;"
           d="M 0.875 -0.59375 C 0.84375 -0.4375 0.78125 -0.203125 0.78125 -0.15625 C 0.78125 0.015625 0.921875 0.109375 1.078125 0.109375 C 1.203125 0.109375 1.375 0.03125 1.453125 -0.171875 C 1.46875 -0.203125 1.796875 -1.5625 1.84375 -1.75 C 1.921875 -2.078125 2.109375 -2.765625 2.15625 -3.046875 C 2.203125 -3.171875 2.484375 -3.640625 2.71875 -3.859375 C 2.796875 -3.921875 3.09375 -4.1875 3.515625 -4.1875 C 3.78125 -4.1875 3.921875 -4.0625 3.9375 -4.0625 C 3.640625 -4.015625 3.421875 -3.78125 3.421875 -3.515625 C 3.421875 -3.359375 3.53125 -3.171875 3.796875 -3.171875 C 4.0625 -3.171875 4.34375 -3.40625 4.34375 -3.765625 C 4.34375 -4.109375 4.03125 -4.40625 3.515625 -4.40625 C 2.875 -4.40625 2.4375 -3.921875 2.25 -3.640625 C 2.15625 -4.09375 1.796875 -4.40625 1.328125 -4.40625 C 0.875 -4.40625 0.6875 -4.015625 0.59375 -3.84375 C 0.421875 -3.5 0.296875 -2.90625 0.296875 -2.875 C 0.296875 -2.765625 0.390625 -2.765625 0.40625 -2.765625 C 0.515625 -2.765625 0.515625 -2.78125 0.578125 -3 C 0.75 -3.703125 0.953125 -4.1875 1.3125 -4.1875 C 1.46875 -4.1875 1.609375 -4.109375 1.609375 -3.734375 C 1.609375 -3.515625 1.578125 -3.40625 1.453125 -2.890625 Z M 0.875 -0.59375 "
           id="path5787" />
      </symbol>
      <symbol
         overflow="visible"
         id="symbol5695">
        <path
           style="stroke:none;"
           d=""
           id="path7907" />
      </symbol>
      <symbol
         overflow="visible"
         id="symbol6363">
        <path
           style="stroke:none;"
           d="M 3.296875 2.390625 C 3.296875 2.359375 3.296875 2.34375 3.125 2.171875 C 1.890625 0.921875 1.5625 -0.96875 1.5625 -2.5 C 1.5625 -4.234375 1.9375 -5.96875 3.171875 -7.203125 C 3.296875 -7.328125 3.296875 -7.34375 3.296875 -7.375 C 3.296875 -7.453125 3.265625 -7.484375 3.203125 -7.484375 C 3.09375 -7.484375 2.203125 -6.796875 1.609375 -5.53125 C 1.109375 -4.4375 0.984375 -3.328125 0.984375 -2.5 C 0.984375 -1.71875 1.09375 -0.515625 1.640625 0.625 C 2.25 1.84375 3.09375 2.5 3.203125 2.5 C 3.265625 2.5 3.296875 2.46875 3.296875 2.390625 Z M 3.296875 2.390625 "
           id="path7149" />
      </symbol>
      <symbol
         overflow="visible"
         id="symbol5484">
        <path
           style="stroke:none;"
           d="M 2.875 -2.5 C 2.875 -3.265625 2.765625 -4.46875 2.21875 -5.609375 C 1.625 -6.828125 0.765625 -7.484375 0.671875 -7.484375 C 0.609375 -7.484375 0.5625 -7.4375 0.5625 -7.375 C 0.5625 -7.34375 0.5625 -7.328125 0.75 -7.140625 C 1.734375 -6.15625 2.296875 -4.578125 2.296875 -2.5 C 2.296875 -0.78125 1.9375 0.96875 0.703125 2.21875 C 0.5625 2.34375 0.5625 2.359375 0.5625 2.390625 C 0.5625 2.453125 0.609375 2.5 0.671875 2.5 C 0.765625 2.5 1.671875 1.8125 2.25 0.546875 C 2.765625 -0.546875 2.875 -1.65625 2.875 -2.5 Z M 2.875 -2.5 "
           id="path6003" />
      </symbol>
      <symbol
         overflow="visible"
         id="symbol444">
        <path
           style="stroke:none;"
           d=""
           id="path4962" />
      </symbol>
      <symbol
         overflow="visible"
         id="symbol6153">
        <path
           style="stroke:none;"
           d="M 7.203125 -0.3125 C 7.15625 -0.3125 7 -0.296875 6.96875 -0.296875 C 6.1875 -0.296875 5.65625 -1.078125 5.3125 -1.59375 C 5.21875 -1.765625 4.9375 -2.171875 4.828125 -2.34375 C 5.078125 -2.875 5.734375 -4.109375 6.921875 -4.109375 C 7 -4.109375 7.09375 -4.109375 7.203125 -4.09375 C 7.203125 -4.34375 7.1875 -4.359375 7.171875 -4.375 C 7.09375 -4.390625 6.953125 -4.40625 6.859375 -4.40625 C 5.59375 -4.40625 4.859375 -3.1875 4.609375 -2.6875 C 4.21875 -3.296875 4.078125 -3.515625 3.703125 -3.828125 C 3.09375 -4.359375 2.546875 -4.40625 2.296875 -4.40625 C 1.203125 -4.40625 0.5625 -3.296875 0.5625 -2.140625 C 0.5625 -1.03125 1.171875 0.109375 2.265625 0.109375 C 3.53125 0.109375 4.28125 -1.109375 4.515625 -1.609375 C 4.921875 -1 5.046875 -0.78125 5.421875 -0.46875 C 6.03125 0.0625 6.578125 0.109375 6.828125 0.109375 C 6.953125 0.109375 7.109375 0.09375 7.203125 0.0625 Z M 4.296875 -1.953125 C 4.0625 -1.421875 3.390625 -0.171875 2.203125 -0.171875 C 1.234375 -0.171875 0.78125 -1.234375 0.78125 -2.140625 C 0.78125 -3.125 1.328125 -4 2.15625 -4 C 2.953125 -4 3.484375 -3.21875 3.8125 -2.703125 C 3.921875 -2.53125 4.1875 -2.125 4.296875 -1.953125 Z M 4.296875 -1.953125 "
           id="path5696" />
      </symbol>
      <symbol
         overflow="visible"
         id="symbol6210">
        <path
           style="stroke:none;"
           d=""
           id="path7448" />
      </symbol>
      <symbol
         overflow="visible"
         id="symbol9247">
        <path
           style="stroke:none;"
           d="M 2.328125 -4.4375 C 2.328125 -4.625 2.328125 -4.625 2.125 -4.625 C 1.671875 -4.1875 1.046875 -4.1875 0.765625 -4.1875 L 0.765625 -3.9375 C 0.921875 -3.9375 1.390625 -3.9375 1.765625 -4.125 L 1.765625 -0.578125 C 1.765625 -0.34375 1.765625 -0.25 1.078125 -0.25 L 0.8125 -0.25 L 0.8125 0 C 0.9375 0 1.796875 -0.03125 2.046875 -0.03125 C 2.265625 -0.03125 3.140625 0 3.296875 0 L 3.296875 -0.25 L 3.03125 -0.25 C 2.328125 -0.25 2.328125 -0.34375 2.328125 -0.578125 Z M 2.328125 -4.4375 "
           id="path4048" />
      </symbol>
      <symbol
         overflow="visible"
         id="symbol7897">
        <path
           style="stroke:none;"
           d=""
           id="path9865" />
      </symbol>
      <symbol
         overflow="visible"
         id="symbol9692">
        <path
           style="stroke:none;"
           d="M 1.640625 -1.40625 C 1.640625 -1.453125 1.8125 -2.078125 1.8125 -2.109375 C 1.828125 -2.171875 2.03125 -2.515625 2.265625 -2.6875 C 2.328125 -2.734375 2.515625 -2.875 2.828125 -2.875 C 2.890625 -2.875 3.0625 -2.875 3.203125 -2.78125 C 2.984375 -2.71875 2.90625 -2.515625 2.90625 -2.390625 C 2.90625 -2.25 3.015625 -2.140625 3.171875 -2.140625 C 3.34375 -2.140625 3.5625 -2.265625 3.5625 -2.5625 C 3.5625 -2.921875 3.1875 -3.078125 2.828125 -3.078125 C 2.46875 -3.078125 2.15625 -2.921875 1.84375 -2.578125 C 1.71875 -3 1.296875 -3.078125 1.125 -3.078125 C 0.875 -3.078125 0.703125 -2.90625 0.578125 -2.71875 C 0.421875 -2.453125 0.328125 -2.046875 0.328125 -2 C 0.328125 -1.921875 0.421875 -1.921875 0.453125 -1.921875 C 0.546875 -1.921875 0.546875 -1.9375 0.59375 -2.125 C 0.703125 -2.546875 0.84375 -2.875 1.109375 -2.875 C 1.296875 -2.875 1.34375 -2.71875 1.34375 -2.53125 C 1.34375 -2.40625 1.28125 -2.140625 1.21875 -1.953125 C 1.171875 -1.765625 1.109375 -1.484375 1.078125 -1.328125 L 0.84375 -0.4375 C 0.828125 -0.34375 0.78125 -0.171875 0.78125 -0.15625 C 0.78125 0 0.90625 0.0625 1.015625 0.0625 C 1.125 0.0625 1.265625 0 1.3125 -0.125 C 1.328125 -0.171875 1.40625 -0.484375 1.453125 -0.65625 Z M 1.640625 -1.40625 "
           id="path6515" />
      </symbol>
      <symbol
         overflow="visible"
         id="symbol2872">
        <path
           style="stroke:none;"
           d=""
           id="path4610" />
      </symbol>
      <symbol
         overflow="visible"
         id="symbol9659">
        <path
           style="stroke:none;"
           d="M 1.640625 -1.65625 C 2.109375 -1.65625 2.40625 -1.359375 2.40625 -0.875 C 2.40625 -0.359375 2.09375 -0.09375 1.65625 -0.09375 C 1.59375 -0.09375 1 -0.09375 0.75 -0.359375 C 0.953125 -0.390625 1.015625 -0.53125 1.015625 -0.65625 C 1.015625 -0.84375 0.875 -0.96875 0.703125 -0.96875 C 0.546875 -0.96875 0.40625 -0.859375 0.40625 -0.640625 C 0.40625 -0.125 0.984375 0.109375 1.671875 0.109375 C 2.484375 0.109375 2.984375 -0.390625 2.984375 -0.875 C 2.984375 -1.28125 2.625 -1.625 2.0625 -1.75 C 2.65625 -1.953125 2.8125 -2.328125 2.8125 -2.609375 C 2.8125 -3.015625 2.3125 -3.3125 1.6875 -3.3125 C 1.0625 -3.3125 0.578125 -3.0625 0.578125 -2.609375 C 0.578125 -2.375 0.765625 -2.3125 0.859375 -2.3125 C 1 -2.3125 1.140625 -2.421875 1.140625 -2.609375 C 1.140625 -2.71875 1.078125 -2.859375 0.90625 -2.890625 C 1.109375 -3.109375 1.5625 -3.125 1.671875 -3.125 C 2.03125 -3.125 2.28125 -2.953125 2.28125 -2.609375 C 2.28125 -2.3125 2.09375 -1.859375 1.578125 -1.828125 C 1.4375 -1.828125 1.421875 -1.828125 1.28125 -1.8125 C 1.234375 -1.8125 1.171875 -1.8125 1.171875 -1.734375 C 1.171875 -1.65625 1.21875 -1.65625 1.3125 -1.65625 Z M 1.640625 -1.65625 "
           id="path6640" />
      </symbol>
    </g>
  </defs>
  <sodipodi:namedview
     id="base"
     pagecolor="#ffffff"
     bordercolor="#666666"
     borderopacity="1.0"
     inkscape:pageopacity="0.0"
     inkscape:pageshadow="2"
     inkscape:zoom="1.4"
     inkscape:cx="314.37757"
     inkscape:cy="139.93331"
     inkscape:document-units="mm"
     inkscape:current-layer="layer1"
     inkscape:document-rotation="0"
     showgrid="false"
     inkscape:window-width="1920"
     inkscape:window-height="1015"
     inkscape:window-x="0"
     inkscape:window-y="36"
     inkscape:window-maximized="1"
     units="px" />
  <metadata
     id="metadata5">
    <rdf:RDF>
      <cc:Work
         rdf:about="">
        <dc:format>image/svg+xml</dc:format>
        <dc:type
           rdf:resource="http://purl.org/dc/dcmitype/StillImage" />
        <dc:title></dc:title>
      </cc:Work>
    </rdf:RDF>
  </metadata>
  <g
     inkscape:label="Layer 1"
     inkscape:groupmode="layer"
     id="layer1">
    <circle
       style="fill:none;stroke:#000000;stroke-width:0.265;stroke-miterlimit:4;stroke-dasharray:none;stroke-opacity:1"
       id="path10"
       cx="53.984467"
       cy="39.504936"
       r="21.158546" />
    <path
       style="fill:none;stroke:#000000;stroke-width:0.219246;stroke-linecap:butt;stroke-linejoin:miter;stroke-miterlimit:4;stroke-dasharray:0.219246, 0.438492;stroke-dashoffset:0;stroke-opacity:1"
       d="M 75.798454,39.45881 H 123.60004"
       id="path837" />
    <path
       style="fill:none;stroke:#000000;stroke-width:0.565;stroke-miterlimit:4;stroke-dasharray:none;stroke-dashoffset:0;stroke-opacity:1;marker-start:url(#Arrow1Mstart)"
       id="path1321"
       sodipodi:type="arc"
       sodipodi:cx="53.761524"
       sodipodi:cy="39.755562"
       sodipodi:rx="6.7828169"
       sodipodi:ry="6.7828169"
       sodipodi:start="2.3672446"
       sodipodi:end="4.9033068"
       sodipodi:open="true"
       sodipodi:arc-type="arc"
       d="m 48.912644,44.498448 a 6.7828169,6.7828169 0 0 1 -1.124025,-7.957076 6.7828169,6.7828169 0 0 1 7.260013,-3.445387" />
    <path
       id="path1467"
       style="fill:none;stroke:#000000;stroke-width:0.585747px;stroke-linecap:butt;stroke-linejoin:miter;stroke-opacity:1"
       d="M 54.683899,39.106697 53.05119,40.736494 M 53.0368,39.058705 54.688739,40.71397" />
    <circle
       style="fill:none;stroke:#000000;stroke-width:0.564999;stroke-miterlimit:4;stroke-dasharray:none;stroke-dashoffset:0;stroke-opacity:1;marker-start:url(#marker1920)"
       id="path1656"
       sodipodi:type="arc"
       sodipodi:cx="53.883244"
       sodipodi:cy="39.993328"
       sodipodi:rx="27.594566"
       sodipodi:ry="27.594566"
       sodipodi:start="0.26179939"
       sodipodi:end="1.3089969"
       sodipodi:arc-type="arc"
       d="M 80.537548,47.135327 A 27.594566,27.594566 0 0 1 61.025244,66.647632"
       sodipodi:open="true" />
    <path
       style="fill:none;stroke:#ff0000;stroke-width:0.565;stroke-linecap:butt;stroke-linejoin:miter;stroke-miterlimit:4;stroke-dasharray:1.695, 0.565;stroke-dashoffset:0;stroke-opacity:1;marker-mid:url(#marker1452)"
       d="m 119.49504,38.690372 c 0,0 -25.27204,1.669426 -37.144397,-7.2903 C 70.478287,22.440346 62.166367,16.681097 53.241376,18.031215 44.316382,19.381333 40.677769,22.737448 40.733067,23.032547"
       id="path974" />
    <path
       style="fill:none;stroke:#0000ff;stroke-width:0.565;stroke-linecap:butt;stroke-linejoin:miter;stroke-miterlimit:4;stroke-dasharray:1.695, 0.565;stroke-dashoffset:0;stroke-opacity:1;marker-mid:url(#marker1666);marker-end:url(#marker1666)"
       d="m 119.49504,38.690372 c 0,0 28.85819,-1.287052 28.19149,13.813055 -0.66669,15.100106 -42.7004,-3.607221 -42.7004,-3.607221"
       id="path1072" />
    <g
       inkscape:label=""
       transform="matrix(0.84023885,0,0,0.85333333,-21.513814,-34.958276)"
       id="g1644">
      <g
         id="g6816">
        <g
           style="fill:#000000;fill-opacity:1"
           id="g7702">
          <use
             xlink:href="#symbol6909"
             x="91.925003"
             y="81.962997"
             id="use2837"
             width="100%"
             height="100%" />
        </g>
      </g>
    </g>
    <g
       inkscape:label=""
       transform="matrix(0.7093408,0,0,0.7093408,8.5943741,6.8647747)"
       id="g2261">
      <g
         id="g9031">
        <g
           style="fill:#000000;fill-opacity:1"
           id="g9026">
          <use
             xlink:href="#symbol1076"
             x="91.925003"
             y="81.962997"
             id="use7029"
             width="100%"
             height="100%" />
        </g>
        <g
           style="fill:#000000;fill-opacity:1"
           id="g2803">
          <use
             xlink:href="#symbol6363"
             x="98.484001"
             y="81.962997"
             id="use7852"
             width="100%"
             height="100%" />
        </g>
        <g
           style="fill:#000000;fill-opacity:1"
           id="g7808">
          <use
             xlink:href="#symbol6480"
             x="102.358"
             y="81.962997"
             id="use1058"
             width="100%"
             height="100%" />
        </g>
        <g
           style="fill:#000000;fill-opacity:1"
           id="g5164">
          <use
             xlink:href="#symbol5484"
             x="107.13"
             y="81.962997"
             id="use9435"
             width="100%"
             height="100%" />
        </g>
        <g
           style="fill:#000000;fill-opacity:1"
           id="g989">
          <use
             xlink:href="#symbol6153"
             x="113.772"
             y="81.962997"
             id="use650"
             width="100%"
             height="100%" />
        </g>
        <g
           style="fill:#000000;fill-opacity:1"
           id="g7406">
          <use
             xlink:href="#symbol9247"
             x="127.398"
             y="78.040001"
             id="use3957"
             width="100%"
             height="100%" />
        </g>
        <path
           style="fill:none;stroke:#000000;stroke-width:0.398;stroke-linecap:butt;stroke-linejoin:miter;stroke-miterlimit:10;stroke-opacity:1"
           d="M 0.001375,-6.5625e-4 H 7.802156"
           transform="matrix(1,0,0,-1,125.483,79.472)"
           id="path3570" />
        <g
           style="fill:#000000;fill-opacity:1"
           id="g7506">
          <use
             xlink:href="#symbol9692"
             x="125.483"
             y="85.398003"
             id="use4848"
             width="100%"
             height="100%" />
        </g>
        <g
           style="fill:#000000;fill-opacity:1"
           id="g5991">
          <use
             xlink:href="#symbol9659"
             x="129.397"
             y="83.405998"
             id="use9699"
             width="100%"
             height="100%" />
        </g>
      </g>
    </g>
  </g>
</svg>
